<svg width="20" height="21" viewBox="0 0 20 21" fill="none" xmlns="http://www.w3.org/2000/svg">
<path d="M6.03317 2.16675H4.44984C2.62484 2.16675 1.6665 3.12508 1.6665 4.94175V6.52508C1.6665 8.34175 2.62484 9.30008 4.4415 9.30008H6.02484C7.8415 9.30008 8.79984 8.34175 8.79984 6.52508V4.94175C8.80817 3.12508 7.84984 2.16675 6.03317 2.16675Z" fill="white"/>
<path d="M15.5585 2.16675H13.9752C12.1585 2.16675 11.2002 3.12508 11.2002 4.94175V6.52508C11.2002 8.34175 12.1585 9.30008 13.9752 9.30008H15.5585C17.3752 9.30008 18.3335 8.34175 18.3335 6.52508V4.94175C18.3335 3.12508 17.3752 2.16675 15.5585 2.16675Z" fill="white"/>
<path d="M15.5585 11.6917H13.9752C12.1585 11.6917 11.2002 12.65 11.2002 14.4667V16.05C11.2002 17.8667 12.1585 18.825 13.9752 18.825H15.5585C17.3752 18.825 18.3335 17.8667 18.3335 16.05V14.4667C18.3335 12.65 17.3752 11.6917 15.5585 11.6917Z" fill="white"/>
<path d="M6.03317 11.6917H4.44984C2.62484 11.6917 1.6665 12.65 1.6665 14.4667V16.05C1.6665 17.875 2.62484 18.8333 4.4415 18.8333H6.02484C7.8415 18.8333 8.79984 17.875 8.79984 16.0583V14.475C8.80817 12.65 7.84984 11.6917 6.03317 11.6917Z" fill="white"/>
</svg>
