<svg width="24" height="25" viewBox="0 0 24 25" fill="none" xmlns="http://www.w3.org/2000/svg">
<path fill-rule="evenodd" clip-rule="evenodd" d="M12.25 3.334C11.79 3.256 11.162 3.25 10.03 3.25C8.113 3.25 6.75 3.252 5.718 3.39C4.706 3.525 4.125 3.78 3.702 4.202C3.279 4.625 3.025 5.205 2.89 6.211C2.752 7.239 2.75 8.593 2.75 10.501V14.501C2.75 16.407 2.752 17.761 2.89 18.789C3.025 19.795 3.279 20.375 3.702 20.799C4.125 21.221 4.705 21.475 5.711 21.61C6.739 21.749 8.093 21.75 10 21.75H14C15.907 21.75 17.262 21.748 18.29 21.61C19.295 21.475 19.875 21.221 20.298 20.798C20.721 20.375 20.975 19.795 21.11 18.789C21.248 17.762 21.25 16.407 21.25 14.5V14.063C21.25 12.527 21.24 11.799 21.076 11.25H17.946C16.813 11.25 15.888 11.25 15.156 11.152C14.393 11.049 13.731 10.827 13.202 10.298C12.673 9.769 12.451 9.108 12.348 8.343C12.25 7.613 12.25 6.687 12.25 5.553V3.334ZM13.75 4.11V5.5C13.75 6.7 13.752 7.524 13.835 8.143C13.915 8.741 14.059 9.034 14.263 9.237C14.466 9.441 14.759 9.585 15.357 9.665C15.976 9.748 16.8 9.75 18 9.75H20.02C19.6363 9.38459 19.2462 9.02587 18.85 8.674L14.891 5.111C14.5175 4.76961 14.1371 4.43587 13.75 4.11ZM10.175 1.75C11.56 1.75 12.455 1.75 13.278 2.065C14.101 2.381 14.763 2.977 15.788 3.9L15.895 3.996L19.853 7.559L19.978 7.671C21.162 8.736 21.928 9.425 22.339 10.349C22.751 11.273 22.751 12.303 22.75 13.895V14.556C22.75 16.394 22.75 17.85 22.597 18.989C22.439 20.161 22.107 21.11 21.359 21.859C20.61 22.607 19.661 22.939 18.489 23.097C17.349 23.25 15.894 23.25 14.056 23.25H9.944C8.106 23.25 6.65 23.25 5.511 23.097C4.339 22.939 3.39 22.607 2.641 21.859C1.893 21.11 1.561 20.161 1.403 18.989C1.25 17.849 1.25 16.394 1.25 14.556V10.445C1.25 8.607 1.25 7.151 1.403 6.012C1.561 4.84 1.893 3.891 2.641 3.142C3.391 2.393 4.342 2.062 5.519 1.904C6.663 1.751 8.126 1.751 9.974 1.751H10.03L10.175 1.75Z" fill="#FA5805"/>
</svg>
