<svg width="55" height="55" viewBox="0 0 55 55" fill="none" xmlns="http://www.w3.org/2000/svg">
<circle cx="27.5" cy="27.5" r="27.5" fill="#F44848"/>
<path d="M37.9491 28.9918L37.7511 30.0288C37.5661 30.9998 36.6591 31.6518 35.6311 31.5528L33.5841 31.3548C32.6921 31.2688 31.9321 30.6348 31.7061 29.7888L31.0741 27.4338C30.1401 27.0505 29.1101 26.8755 27.9841 26.9088C26.9007 26.9321 25.8329 27.1725 24.8441 27.6158L24.4531 29.8208C24.3051 30.6568 23.6151 31.2798 22.7421 31.3678L20.7071 31.5718C19.6921 31.6738 18.7191 31.0278 18.4301 30.0618L18.1211 29.0248C17.8131 27.9928 18.0881 26.9068 18.8421 26.1738C20.6228 24.4438 23.5921 23.5758 27.7501 23.5698C31.9134 23.5652 34.9751 24.4278 36.9351 26.1578C37.7591 26.8858 38.1451 27.9638 37.9501 28.9918" fill="white"/>
</svg>
