<svg width="169" height="20" viewBox="0 0 169 20" fill="none" xmlns="http://www.w3.org/2000/svg">
<g clip-path="url(#clip0_378_2519)">
<path d="M18.3332 18.3335H1.6665" stroke="#FA5805" stroke-width="1.5" stroke-linecap="round"/>
<path d="M14.1667 18.3334V5.00008C14.1667 3.42841 14.1667 2.64341 13.6783 2.15508C13.19 1.66675 12.405 1.66675 10.8333 1.66675H9.16667C7.595 1.66675 6.81 1.66675 6.32167 2.15508C5.83333 2.64341 5.83333 3.42841 5.83333 5.00008V18.3334M17.5 18.3334V7.08341C17.5 5.91341 17.5 5.32758 17.2192 4.90758C17.0975 4.72552 16.9412 4.56921 16.7592 4.44758C16.3392 4.16675 15.7533 4.16675 14.5833 4.16675M2.5 18.3334V7.08341C2.5 5.91341 2.5 5.32758 2.78083 4.90758C2.90246 4.72552 3.05877 4.56921 3.24083 4.44758C3.66083 4.16675 4.24667 4.16675 5.41667 4.16675" stroke="#FA5805" stroke-width="1.5"/>
<path d="M9.99967 18.3334V15.8334M8.33301 10.0001H11.6663M4.58301 9.16675H5.83301M4.58301 11.6667H5.83301M14.1663 9.16675H15.4163M14.1663 11.6667H15.4163M4.58301 6.66675H5.83301M14.1663 6.66675H15.4163M8.33301 12.5001H11.6663" stroke="#FA5805" stroke-width="1.5" stroke-linecap="round"/>
<path d="M9.99967 7.50008V4.16675M11.6663 5.83341H8.33301" stroke="#FA5805" stroke-width="1.5" stroke-linecap="round" stroke-linejoin="round"/>
</g>
<path d="M43.93 3.184L43.912 16H40.222V14.074C40.222 11.806 40.276 9.376 40.366 6.784L37.954 16H35.02L32.59 6.784C32.68 8.728 32.734 10.978 32.752 13.534L32.77 16H29.08V3.184H34.714L35.542 6.514C35.974 8.314 36.298 9.934 36.532 11.374C36.712 10.348 37.072 8.692 37.612 6.424L38.404 3.184H43.93ZM55.618 13.21C55.33 14.2 54.736 14.956 53.818 15.478C52.9 16.018 51.892 16.27 50.794 16.27C49.282 16.27 48.04 15.856 47.032 14.992C46.042 14.146 45.538 12.976 45.538 11.464C45.538 10.024 46.024 8.818 46.996 7.882C47.968 6.946 49.192 6.478 50.668 6.478C52.234 6.478 53.476 6.964 54.412 7.936C55.348 8.908 55.798 10.222 55.798 11.86V12.13H48.958C48.994 12.724 49.156 13.174 49.48 13.498C49.804 13.822 50.236 13.984 50.776 13.984C51.442 13.984 51.946 13.732 52.288 13.21H55.618ZM52.324 10.348C52.234 9.304 51.694 8.764 50.686 8.764C49.732 8.764 49.156 9.304 48.976 10.348H52.324ZM67.0099 3.184V16.018H63.6079V15.01C62.9599 15.838 62.0959 16.252 61.0159 16.252C59.7559 16.252 58.7659 15.802 58.0099 14.902C57.2539 14.002 56.8939 12.796 56.8939 11.302C56.8939 9.844 57.2359 8.674 57.9559 7.792C58.6759 6.928 59.6299 6.478 60.8179 6.478C61.8619 6.478 62.7439 6.892 63.4639 7.72V3.184H67.0099ZM62.0239 9.214C60.9799 9.214 60.4759 9.916 60.4759 11.356C60.4759 12.724 60.9799 13.426 62.0239 13.426C62.5279 13.426 62.9059 13.246 63.1759 12.886C63.4459 12.526 63.5899 12.004 63.5899 11.338C63.5899 10.654 63.4459 10.114 63.1759 9.754C62.9059 9.394 62.5279 9.214 62.0239 9.214ZM72.6158 3.184V5.668H69.0518V3.184H72.6158ZM72.6158 6.712V16H69.0518V6.712H72.6158ZM84.2155 12.274C84.0355 13.534 83.5315 14.506 82.6675 15.19C81.8035 15.892 80.7055 16.234 79.3555 16.234C77.8435 16.234 76.6195 15.802 75.6835 14.902C74.7475 14.02 74.2795 12.868 74.2795 11.428C74.2795 9.952 74.7475 8.764 75.6835 7.864C76.6195 6.964 77.8435 6.496 79.3735 6.496C80.7055 6.496 81.8215 6.838 82.6855 7.522C83.5495 8.206 84.0355 9.106 84.1435 10.222H80.7415C80.6875 9.862 80.5435 9.556 80.2915 9.34C80.0395 9.124 79.7515 9.016 79.4095 9.016C78.3655 9.016 77.8435 9.826 77.8435 11.446C77.8435 12.922 78.3475 13.642 79.3915 13.642C80.1835 13.642 80.6695 13.192 80.8135 12.274H84.2155ZM95.1835 16H91.5835C91.4935 15.694 91.4395 15.406 91.4215 15.136C90.6475 15.928 89.6575 16.306 88.4515 16.306C87.4075 16.306 86.5795 16.054 85.9855 15.532C85.3915 15.028 85.0855 14.308 85.0855 13.39C85.0855 12.922 85.1935 12.526 85.3735 12.166C85.5715 11.824 85.7695 11.554 85.9675 11.374C86.1655 11.194 86.5075 11.014 86.9755 10.87C87.4615 10.726 87.8035 10.618 88.0015 10.582C88.2175 10.546 88.6135 10.492 89.1895 10.402C89.2255 10.402 89.2435 10.384 89.2615 10.384C89.2795 10.384 89.2975 10.384 89.3335 10.384C89.3695 10.384 89.3875 10.366 89.4055 10.366C89.4775 10.366 89.6215 10.348 89.8375 10.33C90.0715 10.312 90.2515 10.294 90.3775 10.258C90.5035 10.24 90.6475 10.204 90.8275 10.15C91.0075 10.078 91.1335 9.988 91.2235 9.88C91.2955 9.754 91.3495 9.61 91.3495 9.448C91.3495 8.908 90.9535 8.638 90.1795 8.638C89.7475 8.638 89.4235 8.692 89.2435 8.836C89.0455 8.962 88.9195 9.214 88.8655 9.574H85.5355C85.6075 7.486 87.1555 6.46 90.1795 6.46C92.5555 6.46 94.0315 7.036 94.5715 8.188C94.7335 8.53 94.8235 9.088 94.8235 9.862C94.8235 10.24 94.8055 10.798 94.8055 11.518C94.7875 12.238 94.7875 12.85 94.7875 13.354C94.7875 14.596 94.9135 15.478 95.1835 16ZM91.3675 11.77C91.0975 11.95 90.5395 12.13 89.7115 12.31C89.0635 12.454 88.7395 12.778 88.7395 13.282C88.7395 13.57 88.8295 13.804 89.0095 13.966C89.1895 14.146 89.4235 14.218 89.7475 14.218C90.3955 14.218 90.8635 13.984 91.1515 13.498C91.2955 13.264 91.3675 12.868 91.3675 12.328V11.77ZM100.301 3.184V16H96.7374V3.184H100.301ZM120.469 10.942C120.361 12.652 119.749 13.966 118.633 14.902C117.517 15.838 116.149 16.306 114.511 16.306C112.585 16.306 111.037 15.676 109.867 14.38C108.679 13.102 108.103 11.5 108.103 9.574C108.103 7.666 108.697 6.064 109.903 4.786C111.109 3.508 112.675 2.878 114.601 2.878C116.149 2.878 117.481 3.346 118.597 4.318C119.713 5.29 120.307 6.496 120.415 7.936H116.599C116.491 7.36 116.257 6.91 115.897 6.604C115.537 6.28 115.069 6.136 114.529 6.136C113.953 6.136 113.467 6.316 113.071 6.676C112.675 7.036 112.423 7.468 112.279 7.954C112.135 8.458 112.063 8.98 112.063 9.556C112.063 10.636 112.279 11.464 112.711 12.076C113.143 12.688 113.755 12.994 114.529 12.994C115.699 12.994 116.383 12.31 116.599 10.942H120.469ZM131.661 13.21C131.373 14.2 130.779 14.956 129.861 15.478C128.943 16.018 127.935 16.27 126.837 16.27C125.325 16.27 124.083 15.856 123.075 14.992C122.085 14.146 121.581 12.976 121.581 11.464C121.581 10.024 122.067 8.818 123.039 7.882C124.011 6.946 125.235 6.478 126.711 6.478C128.277 6.478 129.519 6.964 130.455 7.936C131.391 8.908 131.841 10.222 131.841 11.86V12.13H125.001C125.037 12.724 125.199 13.174 125.523 13.498C125.847 13.822 126.279 13.984 126.819 13.984C127.485 13.984 127.989 13.732 128.331 13.21H131.661ZM128.367 10.348C128.277 9.304 127.737 8.764 126.729 8.764C125.775 8.764 125.199 9.304 125.019 10.348H128.367ZM136.789 6.712V7.882C137.545 6.946 138.517 6.478 139.741 6.478C140.911 6.478 141.757 6.802 142.297 7.486C142.819 8.152 143.089 9.034 143.089 10.132V16H139.507V10.798C139.507 9.826 139.093 9.322 138.301 9.322C137.383 9.322 136.933 9.844 136.933 10.888V16H133.369V6.712H136.789ZM151.179 6.712L151.161 8.926H149.235V12.238C149.235 12.742 149.307 13.084 149.451 13.264C149.595 13.444 149.919 13.516 150.423 13.516C150.765 13.516 151.017 13.516 151.179 13.48V16.054C150.459 16.108 149.829 16.126 149.307 16.126C147.993 16.126 147.057 15.91 146.517 15.442C145.977 14.992 145.707 14.2 145.707 13.084V8.926H144.177V6.712H145.707V3.85H149.253V6.712H151.179ZM161.875 16H158.275C158.185 15.694 158.131 15.406 158.113 15.136C157.339 15.928 156.349 16.306 155.143 16.306C154.099 16.306 153.271 16.054 152.677 15.532C152.083 15.028 151.777 14.308 151.777 13.39C151.777 12.922 151.885 12.526 152.065 12.166C152.263 11.824 152.461 11.554 152.659 11.374C152.857 11.194 153.199 11.014 153.667 10.87C154.153 10.726 154.495 10.618 154.693 10.582C154.909 10.546 155.305 10.492 155.881 10.402C155.917 10.402 155.935 10.384 155.953 10.384C155.971 10.384 155.989 10.384 156.025 10.384C156.061 10.384 156.079 10.366 156.097 10.366C156.169 10.366 156.313 10.348 156.529 10.33C156.763 10.312 156.943 10.294 157.069 10.258C157.195 10.24 157.339 10.204 157.519 10.15C157.699 10.078 157.825 9.988 157.915 9.88C157.987 9.754 158.041 9.61 158.041 9.448C158.041 8.908 157.645 8.638 156.871 8.638C156.439 8.638 156.115 8.692 155.935 8.836C155.737 8.962 155.611 9.214 155.557 9.574H152.227C152.299 7.486 153.847 6.46 156.871 6.46C159.247 6.46 160.723 7.036 161.263 8.188C161.425 8.53 161.515 9.088 161.515 9.862C161.515 10.24 161.497 10.798 161.497 11.518C161.479 12.238 161.479 12.85 161.479 13.354C161.479 14.596 161.605 15.478 161.875 16ZM158.059 11.77C157.789 11.95 157.231 12.13 156.403 12.31C155.755 12.454 155.431 12.778 155.431 13.282C155.431 13.57 155.521 13.804 155.701 13.966C155.881 14.146 156.115 14.218 156.439 14.218C157.087 14.218 157.555 13.984 157.843 13.498C157.987 13.264 158.059 12.868 158.059 12.328V11.77ZM166.993 3.184V16H163.429V3.184H166.993Z" fill="#FA5805"/>
<defs>
<clipPath id="clip0_378_2519">
<rect width="20" height="20" fill="white"/>
</clipPath>
</defs>
</svg>
