<svg width="24" height="25" viewBox="0 0 24 25" fill="none" xmlns="http://www.w3.org/2000/svg">
<path d="M15.3899 5.70979L16.7999 8.52979C16.9899 8.91979 17.4999 9.28979 17.9299 9.36979L20.4799 9.78979C22.1099 10.0598 22.4899 11.2398 21.3199 12.4198L19.3299 14.4098C18.9999 14.7398 18.8099 15.3898 18.9199 15.8598L19.4899 18.3198C19.9399 20.2598 18.8999 21.0198 17.1899 19.9998L14.7999 18.5798C14.3699 18.3198 13.6499 18.3198 13.2199 18.5798L10.8299 19.9998C9.11994 21.0098 8.07994 20.2598 8.52994 18.3198L9.09994 15.8598C9.18994 15.3798 8.99994 14.7298 8.66994 14.3998L6.67994 12.4098C5.50994 11.2398 5.88994 10.0598 7.51994 9.77979L10.0699 9.35979C10.4999 9.28979 11.0099 8.90979 11.1999 8.51979L12.6099 5.69979C13.3799 4.17979 14.6199 4.17979 15.3899 5.70979Z" fill="white"/>
<path d="M8 6.25H2C1.59 6.25 1.25 5.91 1.25 5.5C1.25 5.09 1.59 4.75 2 4.75H8C8.41 4.75 8.75 5.09 8.75 5.5C8.75 5.91 8.41 6.25 8 6.25Z" fill="white"/>
<path d="M5 20.25H2C1.59 20.25 1.25 19.91 1.25 19.5C1.25 19.09 1.59 18.75 2 18.75H5C5.41 18.75 5.75 19.09 5.75 19.5C5.75 19.91 5.41 20.25 5 20.25Z" fill="white"/>
<path d="M3 13.25H2C1.59 13.25 1.25 12.91 1.25 12.5C1.25 12.09 1.59 11.75 2 11.75H3C3.41 11.75 3.75 12.09 3.75 12.5C3.75 12.91 3.41 13.25 3 13.25Z" fill="white"/>
</svg>
