<svg width="24" height="25" viewBox="0 0 24 25" fill="none" xmlns="http://www.w3.org/2000/svg">
<path d="M15.3899 5.71003L16.7999 8.53003C16.9899 8.92003 17.4999 9.29003 17.9299 9.37003L20.4799 9.79003C22.1099 10.06 22.4899 11.24 21.3199 12.42L19.3299 14.41C18.9999 14.74 18.8099 15.39 18.9199 15.86L19.4899 18.32C19.9399 20.26 18.8999 21.02 17.1899 20L14.7999 18.58C14.3699 18.32 13.6499 18.32 13.2199 18.58L10.8299 20C9.11994 21.01 8.07994 20.26 8.52994 18.32L9.09994 15.86C9.18994 15.38 8.99994 14.73 8.66994 14.4L6.67994 12.41C5.50994 11.24 5.88994 10.06 7.51994 9.78003L10.0699 9.36003C10.4999 9.29003 11.0099 8.91003 11.1999 8.52003L12.6099 5.70003C13.3799 4.18003 14.6199 4.18003 15.3899 5.71003Z" fill="#333333"/>
<path d="M8 6.25H2C1.59 6.25 1.25 5.91 1.25 5.5C1.25 5.09 1.59 4.75 2 4.75H8C8.41 4.75 8.75 5.09 8.75 5.5C8.75 5.91 8.41 6.25 8 6.25Z" fill="#333333"/>
<path d="M5 20.25H2C1.59 20.25 1.25 19.91 1.25 19.5C1.25 19.09 1.59 18.75 2 18.75H5C5.41 18.75 5.75 19.09 5.75 19.5C5.75 19.91 5.41 20.25 5 20.25Z" fill="#333333"/>
<path d="M3 13.25H2C1.59 13.25 1.25 12.91 1.25 12.5C1.25 12.09 1.59 11.75 2 11.75H3C3.41 11.75 3.75 12.09 3.75 12.5C3.75 12.91 3.41 13.25 3 13.25Z" fill="#333333"/>
</svg>
