<svg width="19" height="18" viewBox="0 0 19 18" fill="none" xmlns="http://www.w3.org/2000/svg">
<path d="M8.72402 1.24932C9.05633 0.226571 10.5032 0.226569 10.8356 1.24931L12.2247 5.52474C12.3733 5.98212 12.7996 6.2918 13.2805 6.2918H17.7759C18.8513 6.2918 19.2984 7.66789 18.4284 8.29998L14.7915 10.9423C14.4025 11.225 14.2397 11.7261 14.3883 12.1835L15.7774 16.4589C16.1098 17.4816 14.9392 18.3321 14.0692 17.7L10.4323 15.0577C10.0432 14.775 9.51636 14.775 9.12729 15.0577L5.4904 17.7C4.6204 18.3321 3.44982 17.4816 3.78213 16.4589L5.1713 12.1835C5.31991 11.7261 5.15711 11.225 4.76803 10.9423L1.13114 8.29998C0.261141 7.66789 0.70826 6.2918 1.78364 6.2918H6.27908C6.76001 6.2918 7.18624 5.98212 7.33485 5.52474L8.72402 1.24932Z" fill="#FA5805"/>
</svg>
