<svg width="12" height="12" viewBox="0 0 12 12" fill="none" xmlns="http://www.w3.org/2000/svg">
<rect width="12" height="12" rx="6" fill="#FA5805"/>
<path d="M2.80005 4.4001C2.80005 4.18792 2.88433 3.98444 3.03436 3.83441C3.18439 3.68438 3.38788 3.6001 3.60005 3.6001H6.00005C6.21222 3.6001 6.4157 3.68438 6.56573 3.83441C6.71576 3.98444 6.80005 4.18792 6.80005 4.4001V7.6001C6.80005 7.81227 6.71576 8.01575 6.56573 8.16578C6.4157 8.31581 6.21222 8.4001 6.00005 8.4001H3.60005C3.38788 8.4001 3.18439 8.31581 3.03436 8.16578C2.88433 8.01575 2.80005 7.81227 2.80005 7.6001V4.4001ZM7.82125 4.8425C7.75482 4.87569 7.69894 4.92673 7.65987 4.98989C7.6208 5.05305 7.60009 5.12583 7.60005 5.2001V6.8001C7.60009 6.87436 7.6208 6.94715 7.65987 7.01031C7.69894 7.07347 7.75482 7.1245 7.82125 7.1577L8.62125 7.5577C8.68222 7.58816 8.74996 7.60255 8.81805 7.59948C8.88613 7.59641 8.95231 7.576 9.01029 7.54018C9.06827 7.50435 9.11614 7.45431 9.14935 7.39479C9.18256 7.33527 9.20001 7.26825 9.20005 7.2001V4.8001C9.20001 4.73194 9.18256 4.66492 9.14935 4.60541C9.11614 4.54589 9.06827 4.49584 9.01029 4.46002C8.95231 4.4242 8.88613 4.40378 8.81805 4.40072C8.74996 4.39765 8.68222 4.41203 8.62125 4.4425L7.82125 4.8425Z" fill="#FFF4EE"/>
</svg>
