<svg width="24" height="25" viewBox="0 0 24 25" fill="none" xmlns="http://www.w3.org/2000/svg">
<path d="M7.24 2.5H5.34C3.15 2.5 2 3.65 2 5.83V7.73C2 9.91 3.15 11.06 5.33 11.06H7.23C9.41 11.06 10.56 9.91 10.56 7.73V5.83C10.57 3.65 9.42 2.5 7.24 2.5Z" fill="#333333"/>
<path d="M18.6699 2.5H16.7699C14.5899 2.5 13.4399 3.65 13.4399 5.83V7.73C13.4399 9.91 14.5899 11.06 16.7699 11.06H18.6699C20.8499 11.06 21.9999 9.91 21.9999 7.73V5.83C21.9999 3.65 20.8499 2.5 18.6699 2.5Z" fill="#333333"/>
<path d="M18.6699 13.9302H16.7699C14.5899 13.9302 13.4399 15.0802 13.4399 17.2602V19.1602C13.4399 21.3402 14.5899 22.4902 16.7699 22.4902H18.6699C20.8499 22.4902 21.9999 21.3402 21.9999 19.1602V17.2602C21.9999 15.0802 20.8499 13.9302 18.6699 13.9302Z" fill="#333333"/>
<path d="M7.24 13.9302H5.34C3.15 13.9302 2 15.0802 2 17.2602V19.1602C2 21.3502 3.15 22.5002 5.33 22.5002H7.23C9.41 22.5002 10.56 21.3502 10.56 19.1702V17.2702C10.57 15.0802 9.42 13.9302 7.24 13.9302Z" fill="#333333"/>
</svg>
