<svg width="55" height="55" viewBox="0 0 55 55" fill="none" xmlns="http://www.w3.org/2000/svg">
<circle cx="27.5" cy="27.5" r="27.5" fill="#D9D9D9" fill-opacity="0.2"/>
<path d="M27.9997 17C28.6563 17 29.3065 17.1293 29.9131 17.3806C30.5197 17.6319 31.0709 18.0002 31.5352 18.4645C31.9995 18.9288 32.3678 19.48 32.6191 20.0866C32.8704 20.6932 32.9997 21.3434 32.9997 22V26C32.9997 27.3261 32.4729 28.5979 31.5352 29.5355C30.5975 30.4732 29.3258 31 27.9997 31C26.6736 31 25.4018 30.4732 24.4642 29.5355C23.5265 28.5979 22.9997 27.3261 22.9997 26V22C22.9997 20.6739 23.5265 19.4021 24.4642 18.4645C25.4018 17.5268 26.6736 17 27.9997 17ZM19.0547 27H21.0697C21.312 28.6648 22.1456 30.1867 23.4179 31.2873C24.6903 32.3879 26.3164 32.9936 27.9987 32.9936C29.681 32.9936 31.3071 32.3879 32.5795 31.2873C33.8518 30.1867 34.6854 28.6648 34.9277 27H36.9437C36.7163 29.0287 35.8063 30.9199 34.3629 32.3635C32.9195 33.8071 31.0284 34.7174 28.9997 34.945V39H26.9997V34.945C24.9708 34.7176 23.0795 33.8074 21.6359 32.3638C20.1923 30.9202 19.2821 29.0289 19.0547 27Z" fill="white"/>
</svg>
