<svg width="55" height="55" viewBox="0 0 55 55" fill="none" xmlns="http://www.w3.org/2000/svg">
<circle cx="27.5" cy="27.5" r="27.5" fill="#D9D9D9" fill-opacity="0.2"/>
<path d="M29.5 19.7499C29.5 19.6024 29.4565 19.4582 29.3749 19.3353C29.2933 19.2124 29.1773 19.1162 29.0414 19.0589C28.9055 19.0016 28.7557 18.9857 28.6107 19.013C28.4658 19.0404 28.3321 19.11 28.2265 19.2129L23.836 23.4879H21.25C20.6533 23.4879 20.081 23.725 19.659 24.1469C19.2371 24.5689 19 25.1412 19 25.7379V30.2229C19 30.8197 19.2371 31.392 19.659 31.8139C20.081 32.2359 20.6533 32.4729 21.25 32.4729H23.8345L28.225 36.7854C28.3305 36.8888 28.4641 36.9588 28.6092 36.9865C28.7542 37.0142 28.9043 36.9985 29.0404 36.9413C29.1766 36.8841 29.2928 36.788 29.3746 36.665C29.4564 36.542 29.5 36.3976 29.5 36.2499V19.7499ZM31.1665 23.7834C31.2278 23.7063 31.3038 23.6419 31.39 23.5941C31.4762 23.5463 31.5709 23.516 31.6689 23.5048C31.7668 23.4937 31.866 23.502 31.9607 23.5292C32.0555 23.5564 32.1439 23.602 32.221 23.6634L32.224 23.6649L32.227 23.6679L32.2345 23.6739L32.257 23.6934L32.326 23.7534C32.381 23.8034 32.452 23.8744 32.539 23.9664C32.7085 24.1509 32.929 24.4194 33.1465 24.7764C33.583 25.4964 34.006 26.5659 34.006 27.9984C34.006 29.4294 33.583 30.5004 33.1465 31.2204C32.9715 31.5104 32.7679 31.7823 32.539 32.0319C32.4427 32.1346 32.3415 32.2327 32.236 32.3259L32.224 32.3364H32.2225C32.2225 32.3364 31.552 32.7009 31.168 32.2194C31.0445 32.0649 30.9871 31.8679 31.0081 31.6713C31.0292 31.4746 31.1271 31.2943 31.2805 31.1694L31.2835 31.1664L31.3105 31.1424C31.3385 31.1174 31.381 31.0749 31.438 31.0149C31.5986 30.8385 31.7413 30.6466 31.864 30.4419C32.179 29.9244 32.506 29.1189 32.506 27.9969C32.506 26.8749 32.179 26.0724 31.864 25.5564C31.7095 25.302 31.5241 25.0677 31.312 24.8589L31.285 24.8349C31.1303 24.7109 31.0309 24.5307 31.0087 24.3336C30.9865 24.1366 31.0432 23.9388 31.1665 23.7834ZM33.7195 20.6634C33.6427 20.5999 33.554 20.5523 33.4586 20.5234C33.3633 20.4945 33.2631 20.4849 33.1639 20.4952C33.0648 20.5055 32.9687 20.5355 32.8813 20.5833C32.7938 20.6311 32.7168 20.6959 32.6547 20.7739C32.5926 20.8518 32.5467 20.9414 32.5196 21.0373C32.4925 21.1332 32.4848 21.2336 32.4969 21.3325C32.509 21.4314 32.5408 21.5269 32.5902 21.6135C32.6397 21.7 32.7059 21.7758 32.785 21.8364L32.8015 21.8514L32.8795 21.9189C32.9515 21.9819 33.052 22.0794 33.181 22.2114C33.436 22.4769 33.781 22.8759 34.126 23.4024C34.816 24.4539 35.506 26.0019 35.506 28.0059C35.5119 29.6413 35.0315 31.2416 34.126 32.6034C33.781 33.1284 33.436 33.5244 33.181 33.7884C33.0603 33.9139 32.9342 34.034 32.803 34.1484L32.7865 34.1634H32.785C32.6336 34.2887 32.5375 34.4684 32.5172 34.6638C32.4969 34.8593 32.5541 35.0549 32.6766 35.2086C32.799 35.3622 32.9769 35.4617 33.1719 35.4856C33.3669 35.5096 33.5636 35.456 33.7195 35.3364L33.769 35.2959L33.8815 35.1984C33.976 35.1129 34.1065 34.9914 34.261 34.8309C34.677 34.3989 35.0517 33.9289 35.38 33.4269C36.4455 31.8203 37.0109 29.9338 37.0045 28.0059C37.0085 26.0765 36.4434 24.1888 35.38 22.5789C35.0516 22.0765 34.6775 21.6055 34.2625 21.1719C34.1056 21.0091 33.9414 20.8534 33.7705 20.7054L33.736 20.6769L33.7255 20.6679L33.7225 20.6649L33.7195 20.6634Z" fill="white"/>
</svg>
