<svg width="24" height="24" viewBox="0 0 24 24" fill="none" xmlns="http://www.w3.org/2000/svg">
<path d="M19.2799 3.75772C20.4051 4.88293 21.0372 6.40899 21.0372 8.00022C21.0372 9.59145 20.4051 11.1175 19.2799 12.2427L17.1579 14.3627L12.2079 19.3137C11.0796 20.4238 9.55839 21.0431 7.97557 21.0366C6.39275 21.0302 4.87659 20.3985 3.75736 19.2793C2.63813 18.1601 2.00649 16.6439 2.00005 15.0611C1.9936 13.4783 2.61287 11.957 3.72295 10.8287L10.7939 3.75772C11.3511 3.20046 12.0126 2.75841 12.7406 2.45682C13.4686 2.15523 14.2489 2 15.0369 2C15.825 2 16.6053 2.15523 17.3333 2.45682C18.0613 2.75841 18.7228 3.20046 19.2799 3.75772ZM14.3299 14.3637L8.67295 8.70772L5.13695 12.2427C4.38678 12.9929 3.96535 14.0103 3.96535 15.0712C3.96535 16.1321 4.38678 17.1496 5.13695 17.8997C5.88711 18.6499 6.90456 19.0713 7.96545 19.0713C9.02634 19.0713 10.0438 18.6499 10.7939 17.8997L14.3299 14.3637Z" fill="#FA5805"/>
</svg>
